<svg xmlns="http://www.w3.org/2000/svg" version="1.1" xmlns:xlink="http://www.w3.org/1999/xlink" xmlns:svgjs="http://svgjs.dev/svgjs" width="400" height="170" viewBox="0 0 2000 585"><g transform="matrix(1,0,0,1,-1.2121212121212466,0.8254225103261206)"><svg viewBox="0 0 396 116" data-background-color="#ffffff" preserveAspectRatio="xMidYMid meet" height="585" width="2000" xmlns="http://www.w3.org/2000/svg" xmlns:xlink="http://www.w3.org/1999/xlink"><g id="tight-bounds" transform="matrix(1,0,0,1,0.2400000000000091,-0.163673523415099)"><svg viewBox="0 0 395.52 116.32734704683017" height="116.32734704683017" width="395.52"><g><svg viewBox="0 0 661.8001716171361 194.64365452912207" height="116.32734704683017" width="395.52"><g transform="matrix(1,0,0,1,266.2801716171361,26.900823455182575)"><svg viewBox="0 0 395.52 140.84200761875692" height="140.84200761875692" width="395.52"><g id="textblocktransform"><svg viewBox="0 0 395.52 140.84200761875692" height="140.84200761875692" width="395.52" id="textblock"><g><svg viewBox="0 0 395.52 95.47034482758619" height="95.47034482758619" width="395.52"><g transform="matrix(1,0,0,1,0,0)"><svg width="395.52" viewBox="2 -35.65 150.79 36.4" height="95.47034482758619" data-palette-color="#000000"><path d="M24.1-24.15L24.1-24.15 24.1-5.55Q24.1-4.75 24.38-4.45 24.65-4.15 25.35-4.1L25.35-4.1 26.95-4 26.95 0 19 0 19-2.9 18.85-2.95Q16.35 0.65 12 0.65L12 0.65Q6.9 0.65 4.45-2.6 2-5.85 2-11.5L2-11.5Q2-18.3 5.3-22.1 8.6-25.9 15.2-25.9L15.2-25.9Q19.45-25.9 24.1-24.15ZM18.3-7.95L18.3-7.95 18.3-20.9Q16.9-21.55 14.45-21.55L14.45-21.55Q11.1-21.55 9.6-18.85 8.1-16.15 8.1-11.7L8.1-11.7Q8.1-3.6 13.3-3.6L13.3-3.6Q15.5-3.6 16.9-4.93 18.3-6.25 18.3-7.95ZM30-35.65L38.95-35.65 38.95-4.15 41.8-4 41.8 0 29.9 0 29.9-3.8 31.55-3.95Q33-4.1 33-5.55L33-5.55 33-30.2Q33-31.3 31.75-31.4L31.75-31.4 30-31.5 30-35.65ZM44.9-35.65L53.85-35.65 53.85-4.15 56.7-4 56.7 0 44.8 0 44.8-3.8 46.45-3.95Q47.9-4.1 47.9-5.55L47.9-5.55 47.9-30.2Q47.9-31.3 46.65-31.4L46.65-31.4 44.9-31.5 44.9-35.65ZM71.29-3.65L71.29-3.65Q76.74-3.65 76.74-12.45L76.74-12.45Q76.74-16.9 75.52-19.2 74.29-21.5 71.42-21.5 68.54-21.5 67.19-19.3 65.84-17.1 65.84-13.3L65.84-13.3Q65.84-6.25 68.44-4.45L68.44-4.45Q69.59-3.65 71.29-3.65ZM59.79-12.6L59.79-12.6Q59.79-16.3 60.89-19.03 61.99-21.75 63.84-23.2L63.84-23.2Q67.39-25.9 71.69-25.9L71.69-25.9Q74.69-25.9 76.77-24.93 78.84-23.95 80.02-22.68 81.19-21.4 82.02-18.98 82.84-16.55 82.84-13.25L82.84-13.25Q82.84-6.35 79.49-2.8 76.14 0.75 70.92 0.75 65.69 0.75 62.74-2.63 59.79-6 59.79-12.6ZM97.69-3.65L97.69-3.65Q103.14-3.65 103.14-12.45L103.14-12.45Q103.14-16.9 101.92-19.2 100.69-21.5 97.82-21.5 94.94-21.5 93.59-19.3 92.24-17.1 92.24-13.3L92.24-13.3Q92.24-6.25 94.84-4.45L94.84-4.45Q95.99-3.65 97.69-3.65ZM86.19-12.6L86.19-12.6Q86.19-16.3 87.29-19.03 88.39-21.75 90.24-23.2L90.24-23.2Q93.79-25.9 98.09-25.9L98.09-25.9Q101.09-25.9 103.17-24.93 105.24-23.95 106.42-22.68 107.59-21.4 108.42-18.98 109.24-16.55 109.24-13.25L109.24-13.25Q109.24-6.35 105.89-2.8 102.54 0.75 97.32 0.75 92.09 0.75 89.14-2.63 86.19-6 86.19-12.6ZM112.59-35.65L121.54-35.65 121.54-4.15 124.39-4 124.39 0 112.49 0 112.49-3.8 114.14-3.95Q115.59-4.1 115.59-5.55L115.59-5.55 115.59-30.2Q115.59-31.3 114.34-31.4L114.34-31.4 112.59-31.5 112.59-35.65ZM149.94-24.15L149.94-24.15 149.94-5.55Q149.94-4.75 150.21-4.45 150.49-4.15 151.19-4.1L151.19-4.1 152.79-4 152.79 0 144.84 0 144.84-2.9 144.69-2.95Q142.19 0.65 137.84 0.65L137.84 0.65Q132.74 0.65 130.29-2.6 127.84-5.85 127.84-11.5L127.84-11.5Q127.84-18.3 131.14-22.1 134.44-25.9 141.04-25.9L141.04-25.9Q145.29-25.9 149.94-24.15ZM144.14-7.95L144.14-7.95 144.14-20.9Q142.74-21.55 140.29-21.55L140.29-21.55Q136.94-21.55 135.44-18.85 133.94-16.15 133.94-11.7L133.94-11.7Q133.94-3.6 139.14-3.6L139.14-3.6Q141.34-3.6 142.74-4.93 144.14-6.25 144.14-7.95Z" opacity="1" transform="matrix(1,0,0,1,0,0)" fill="#000000" class="wordmark-text-0" data-fill-palette-color="primary" id="text-0"></path></svg></g></svg></g><g transform="matrix(1,0,0,1,0,118.00860195310342)"><svg viewBox="0 0 232.20979200000002 22.833405665653498" height="22.833405665653498" width="232.20979200000002"><g transform="matrix(1,0,0,1,0,0)"><svg width="232.20979200000002" viewBox="3 -35.01 457.78 45.019999999999996" height="22.833405665653498" data-palette-color="#89939e"><path d="M19.7-6.86L19.7-6.86Q19.7-5.35 19.13-4 18.55-2.66 17.55-1.66 16.55-0.66 15.21-0.09 13.87 0.49 12.35 0.49L12.35 0.49 10.35 0.49Q8.84 0.49 7.5-0.09 6.15-0.66 5.15-1.66 4.15-2.66 3.58-4 3-5.35 3-6.86L3-6.86 3-18.14Q3-19.65 3.58-21 4.15-22.34 5.15-23.34 6.15-24.34 7.5-24.91 8.84-25.49 10.35-25.49L10.35-25.49 12.35-25.49Q13.87-25.49 15.21-24.91 16.55-24.34 17.55-23.34 18.55-22.34 19.13-21 19.7-19.65 19.7-18.14L19.7-18.14 19.7-6.86ZM16.7-6.69L16.7-18.31Q16.7-19.21 16.36-20.01 16.02-20.8 15.43-21.39 14.84-21.97 14.05-22.31 13.26-22.66 12.35-22.66L12.35-22.66 10.35-22.66Q9.45-22.66 8.65-22.31 7.86-21.97 7.28-21.39 6.69-20.8 6.35-20.01 6.01-19.21 6.01-18.31L6.01-18.31 6.01-6.69Q6.01-5.79 6.35-4.99 6.69-4.2 7.28-3.61 7.86-3.03 8.65-2.69 9.45-2.34 10.35-2.34L10.35-2.34 12.35-2.34Q13.26-2.34 14.05-2.69 14.84-3.03 15.43-3.61 16.02-4.2 16.36-4.99 16.7-5.79 16.7-6.69L16.7-6.69ZM42.4 0L41.4 0 39.74-2.54Q38.72-1.15 37.18-0.33 35.64 0.49 33.81 0.49L33.81 0.49 33.05 0.49Q31.54 0.49 30.2-0.09 28.85-0.66 27.85-1.66 26.85-2.66 26.28-4 25.71-5.35 25.71-6.86L25.71-6.86 25.71-25 28.71-25 28.71-6.69Q28.71-5.79 29.05-4.99 29.39-4.2 29.98-3.61 30.56-3.03 31.36-2.69 32.15-2.34 33.05-2.34L33.05-2.34 35.06-2.34Q35.96-2.34 36.75-2.69 37.55-3.03 38.13-3.61 38.72-4.2 39.06-4.99 39.4-5.79 39.4-6.69L39.4-6.69 39.4-25 42.4-25 42.4 0ZM60.25 0L57.51 0Q56.15 0 54.94-0.51 53.73-1.03 52.84-1.93 51.95-2.83 51.42-4.03 50.9-5.22 50.9-6.59L50.9-6.59 50.9-22.14 46.41-22.14 46.41-25 50.9-25 50.9-31.01 53.9-31.49 53.9-25 60.25-25 60.25-22.14 53.9-22.14 53.9-6.45Q53.9-5.69 54.18-5.04 54.46-4.39 54.95-3.91 55.44-3.42 56.1-3.14 56.76-2.86 57.51-2.86L57.51-2.86 60.25-2.86 60.25 0ZM82.46 0L81.46 0 79.8-2.54Q78.78-1.15 77.24-0.33 75.7 0.49 73.87 0.49L73.87 0.49 73.11 0.49Q71.6 0.49 70.26-0.09 68.91-0.66 67.91-1.66 66.91-2.66 66.34-4 65.76-5.35 65.76-6.86L65.76-6.86 65.76-18.14Q65.76-19.65 66.34-21 66.91-22.34 67.91-23.34 68.91-24.34 70.26-24.91 71.6-25.49 73.11-25.49L73.11-25.49 73.87-25.49Q75.55-25.49 76.99-24.8 78.43-24.12 79.46-22.9L79.46-22.9 79.46-35.01 82.46-35.01 82.46 0ZM79.46-6.69L79.46-18.31Q79.46-19.21 79.12-20.01 78.78-20.8 78.19-21.39 77.6-21.97 76.81-22.31 76.02-22.66 75.11-22.66L75.11-22.66 73.11-22.66Q72.21-22.66 71.42-22.31 70.62-21.97 70.04-21.39 69.45-20.8 69.11-20.01 68.77-19.21 68.77-18.31L68.77-18.31 68.77-6.69Q68.77-5.79 69.11-4.99 69.45-4.2 70.04-3.61 70.62-3.03 71.42-2.69 72.21-2.34 73.11-2.34L73.11-2.34 75.11-2.34Q76.02-2.34 76.81-2.69 77.6-3.03 78.19-3.61 78.78-4.2 79.12-4.99 79.46-5.79 79.46-6.69L79.46-6.69ZM105.17-6.86L105.17-6.86Q105.17-5.35 104.59-4 104.02-2.66 103.02-1.66 102.02-0.66 100.67-0.09 99.33 0.49 97.82 0.49L97.82 0.49 95.82 0.49Q94.3 0.49 92.96-0.09 91.62-0.66 90.62-1.66 89.61-2.66 89.04-4 88.47-5.35 88.47-6.86L88.47-6.86 88.47-18.14Q88.47-19.65 89.04-21 89.61-22.34 90.62-23.34 91.62-24.34 92.96-24.91 94.3-25.49 95.82-25.49L95.82-25.49 97.82-25.49Q99.33-25.49 100.67-24.91 102.02-24.34 103.02-23.34 104.02-22.34 104.59-21 105.17-19.65 105.17-18.14L105.17-18.14 105.17-6.86ZM102.16-6.69L102.16-18.31Q102.16-19.21 101.82-20.01 101.48-20.8 100.89-21.39 100.31-21.97 99.51-22.31 98.72-22.66 97.82-22.66L97.82-22.66 95.82-22.66Q94.91-22.66 94.12-22.31 93.32-21.97 92.74-21.39 92.15-20.8 91.81-20.01 91.47-19.21 91.47-18.31L91.47-18.31 91.47-6.69Q91.47-5.79 91.81-4.99 92.15-4.2 92.74-3.61 93.32-3.03 94.12-2.69 94.91-2.34 95.82-2.34L95.82-2.34 97.82-2.34Q98.72-2.34 99.51-2.69 100.31-3.03 100.89-3.61 101.48-4.2 101.82-4.99 102.16-5.79 102.16-6.69L102.16-6.69ZM127.87-6.86L127.87-6.86Q127.87-5.35 127.29-4 126.72-2.66 125.72-1.66 124.72-0.66 123.38-0.09 122.03 0.49 120.52 0.49L120.52 0.49 118.52 0.49Q117 0.49 115.66-0.09 114.32-0.66 113.32-1.66 112.32-2.66 111.74-4 111.17-5.35 111.17-6.86L111.17-6.86 111.17-18.14Q111.17-19.65 111.74-21 112.32-22.34 113.32-23.34 114.32-24.34 115.66-24.91 117-25.49 118.52-25.49L118.52-25.49 120.52-25.49Q122.03-25.49 123.38-24.91 124.72-24.34 125.72-23.34 126.72-22.34 127.29-21 127.87-19.65 127.87-18.14L127.87-18.14 127.87-6.86ZM124.87-6.69L124.87-18.31Q124.87-19.21 124.52-20.01 124.18-20.8 123.6-21.39 123.01-21.97 122.22-22.31 121.42-22.66 120.52-22.66L120.52-22.66 118.52-22.66Q117.61-22.66 116.82-22.31 116.03-21.97 115.44-21.39 114.86-20.8 114.51-20.01 114.17-19.21 114.17-18.31L114.17-18.31 114.17-6.69Q114.17-5.79 114.51-4.99 114.86-4.2 115.44-3.61 116.03-3.03 116.82-2.69 117.61-2.34 118.52-2.34L118.52-2.34 120.52-2.34Q121.42-2.34 122.22-2.69 123.01-3.03 123.6-3.61 124.18-4.2 124.52-4.99 124.87-5.79 124.87-6.69L124.87-6.69ZM144.22-22.14L141.22-22.14Q140.32-22.14 139.52-21.8 138.73-21.46 138.14-20.87 137.56-20.29 137.22-19.49 136.87-18.7 136.87-17.8L136.87-17.8 136.87 0 133.87 0 133.87-25 134.87-25 136.51-22.46Q137.53-23.85 139.08-24.67 140.63-25.49 142.47-25.49L142.47-25.49 144.22-25.49 144.22-22.14ZM149.47-3.76L146.98 7.01 145.71 7.01 145.71-3.76 149.47-3.76ZM179.3 0L176.56 0Q175.2 0 173.99-0.51 172.78-1.03 171.89-1.93 171-2.83 170.47-4.03 169.95-5.22 169.95-6.59L169.95-6.59 169.95-22.14 165.46-22.14 165.46-25 169.95-25 169.95-31.01 172.95-31.49 172.95-25 179.3-25 179.3-22.14 172.95-22.14 172.95-6.45Q172.95-5.69 173.23-5.04 173.51-4.39 174-3.91 174.49-3.42 175.15-3.14 175.81-2.86 176.56-2.86L176.56-2.86 179.3-2.86 179.3 0ZM195.17-22.14L192.16-22.14Q191.26-22.14 190.47-21.8 189.67-21.46 189.09-20.87 188.5-20.29 188.16-19.49 187.82-18.7 187.82-17.8L187.82-17.8 187.82 0 184.81 0 184.81-25 185.81-25 187.45-22.46Q188.48-23.85 190.03-24.67 191.58-25.49 193.41-25.49L193.41-25.49 195.17-25.49 195.17-22.14ZM215.87 0L214.87 0 213.2-2.49Q212.18-1.15 210.64-0.33 209.1 0.49 207.27 0.49L207.27 0.49 206.52 0.49Q205 0.49 203.66-0.09 202.32-0.66 201.32-1.66 200.31-2.66 199.74-4 199.17-5.35 199.17-6.86L199.17-6.86 199.17-7.1Q199.17-8.62 199.74-9.96 200.31-11.3 201.32-12.3 202.32-13.31 203.66-13.88 205-14.45 206.52-14.45L206.52-14.45 212.86-14.45 212.86-18.31Q212.86-19.21 212.52-20.01 212.18-20.8 211.59-21.39 211.01-21.97 210.21-22.31 209.42-22.66 208.52-22.66L208.52-22.66 206.76-22.66Q205.86-22.66 205.06-22.31 204.27-21.97 203.68-21.39 203.1-20.8 202.76-20.01 202.41-19.21 202.41-18.31L202.41-18.31 202.41-17.41 199.41-17.9 199.41-18.14Q199.41-19.65 199.98-21 200.56-22.34 201.56-23.34 202.56-24.34 203.9-24.91 205.25-25.49 206.76-25.49L206.76-25.49 208.52-25.49Q210.03-25.49 211.37-24.91 212.72-24.34 213.72-23.34 214.72-22.34 215.29-21 215.87-19.65 215.87-18.14L215.87-18.14 215.87 0ZM212.86-6.69L212.86-12.11 206.52-12.11Q205.61-12.11 204.82-11.77 204.03-11.43 203.44-10.83 202.85-10.23 202.51-9.44 202.17-8.64 202.17-7.74L202.17-7.74 202.17-6.69Q202.17-5.79 202.51-4.99 202.85-4.2 203.44-3.61 204.03-3.03 204.82-2.69 205.61-2.34 206.52-2.34L206.52-2.34 208.52-2.34Q209.42-2.34 210.21-2.69 211.01-3.03 211.59-3.61 212.18-4.2 212.52-4.99 212.86-5.79 212.86-6.69L212.86-6.69ZM238.57-6.86L238.57-6.86Q238.57-5.35 237.99-4 237.42-2.66 236.42-1.66 235.42-0.66 234.08-0.09 232.73 0.49 231.22 0.49L231.22 0.49 229.22 0.49Q227.7 0.49 226.36-0.09 225.02-0.66 224.02-1.66 223.02-2.66 222.44-4 221.87-5.35 221.87-6.86L221.87-6.86 221.87-18.14Q221.87-19.65 222.44-21 223.02-22.34 224.02-23.34 225.02-24.34 226.36-24.91 227.7-25.49 229.22-25.49L229.22-25.49 231.22-25.49Q232.73-25.49 234.08-24.91 235.42-24.34 236.42-23.34 237.42-22.34 237.99-21 238.57-19.65 238.57-18.14L238.57-18.14 238.57-17.14 235.57-16.65 235.57-18.31Q235.57-19.21 235.22-20.01 234.88-20.8 234.3-21.39 233.71-21.97 232.92-22.31 232.12-22.66 231.22-22.66L231.22-22.66 229.22-22.66Q228.31-22.66 227.52-22.31 226.73-21.97 226.14-21.39 225.56-20.8 225.21-20.01 224.87-19.21 224.87-18.31L224.87-18.31 224.87-6.69Q224.87-5.79 225.21-4.99 225.56-4.2 226.14-3.61 226.73-3.03 227.52-2.69 228.31-2.34 229.22-2.34L229.22-2.34 231.22-2.34Q232.12-2.34 232.92-2.69 233.71-3.03 234.3-3.61 234.88-4.2 235.22-4.99 235.57-5.79 235.57-6.69L235.57-6.69 235.57-8.35 238.57-7.86 238.57-6.86ZM262.78 0L258.88 0 248.67-12.5 258.88-25 262.78-25 252.34-12.5 262.78 0ZM248.09 0L245.08 0 245.08-35.01 248.09-35.01 248.09 0ZM271.03-31.01L267.54-31.01 267.54-35.01 271.03-35.01 271.03-31.01ZM270.79 0L267.79 0 267.79-25 270.79-25 270.79 0ZM294.49 0L291.49 0 291.49-18.31Q291.49-19.21 291.15-20.01 290.81-20.8 290.22-21.39 289.64-21.97 288.84-22.31 288.05-22.66 287.15-22.66L287.15-22.66 285.14-22.66Q284.24-22.66 283.45-22.31 282.65-21.97 282.07-21.39 281.48-20.8 281.14-20.01 280.8-19.21 280.8-18.31L280.8-18.31 280.8 0 277.79 0 277.79-25 278.8-25 280.43-22.46Q281.46-23.85 283.01-24.67 284.56-25.49 286.39-25.49L286.39-25.49 287.15-25.49Q288.66-25.49 290-24.91 291.34-24.34 292.35-23.34 293.35-22.34 293.92-21 294.49-19.65 294.49-18.14L294.49-18.14 294.49 0ZM317.44 3.15L317.44 3.15Q317.44 4.66 316.87 5.93 316.29 7.2 315.29 8.11 314.29 9.01 312.95 9.51 311.61 10.01 310.09 10.01L310.09 10.01 308.85 10.01Q307.33 10.01 305.99 9.51 304.65 9.01 303.65 8.11 302.65 7.2 302.07 5.93 301.5 4.66 301.5 3.15L301.5 3.15 301.5 3.05Q301.5 1.59 302.04 0.37 302.57-0.85 303.5-1.76L303.5-1.76Q302.33-2.47 301.63-3.67 300.94-4.88 300.94-6.35L300.94-6.35Q300.94-7.67 301.5-8.8 302.06-9.94 303.04-10.64L303.04-10.64Q301.86-11.67 301.18-13.11 300.5-14.55 300.5-16.26L300.5-16.26 300.5-18.14Q300.5-19.65 301.07-21 301.64-22.34 302.65-23.34 303.65-24.34 304.99-24.91 306.33-25.49 307.85-25.49L307.85-25.49 309.09-25.49Q310.92-25.49 312.47-24.67 314.02-23.85 315.05-22.46L315.05-22.46 316.68-25 317.68-25 317.68-16.26Q317.68-14.75 317.11-13.4 316.54-12.06 315.54-11.06 314.54-10.06 313.19-9.48 311.85-8.91 310.34-8.91L310.34-8.91 305.99-8.91Q305.48-8.91 305.01-8.7 304.55-8.5 304.2-8.15 303.84-7.81 303.65-7.34 303.45-6.86 303.45-6.35L303.45-6.35Q303.45-5.83 303.65-5.37 303.84-4.91 304.2-4.55 304.55-4.2 305.01-4 305.48-3.81 305.99-3.81L305.99-3.81 310.09-3.81Q311.61-3.81 312.95-3.31 314.29-2.81 315.29-1.9 316.29-1 316.87 0.27 317.44 1.54 317.44 3.05L317.44 3.05 317.44 3.15ZM314.71-16.09L314.71-18.31Q314.71-19.21 314.36-20.01 314.02-20.8 313.42-21.39 312.83-21.97 312.03-22.31 311.24-22.66 310.34-22.66L310.34-22.66 307.85-22.66Q306.94-22.66 306.15-22.31 305.36-21.97 304.77-21.39 304.18-20.8 303.84-20.01 303.5-19.21 303.5-18.31L303.5-18.31 303.5-16.09Q303.5-15.19 303.84-14.39 304.18-13.6 304.77-13.01 305.36-12.43 306.15-12.08 306.94-11.74 307.85-11.74L307.85-11.74 310.34-11.74Q311.24-11.74 312.03-12.08 312.83-12.43 313.42-13.01 314.02-13.6 314.36-14.39 314.71-15.19 314.71-16.09L314.71-16.09ZM314.58 3.3L314.58 2.91Q314.58 2 314.24 1.28 313.9 0.56 313.31 0.07 312.73-0.42 311.94-0.68 311.14-0.95 310.24-0.95L310.24-0.95 308.7-0.95Q307.8-0.95 307-0.68 306.21-0.42 305.62 0.07 305.04 0.56 304.7 1.28 304.35 2 304.35 2.91L304.35 2.91 304.35 3.3Q304.35 4.2 304.7 4.91 305.04 5.62 305.62 6.12 306.21 6.62 307 6.88 307.8 7.15 308.7 7.15L308.7 7.15 310.24 7.15Q311.14 7.15 311.94 6.88 312.73 6.62 313.31 6.12 313.9 5.62 314.24 4.91 314.58 4.2 314.58 3.3L314.58 3.3ZM327.45-3.76L324.96 7.01 323.69 7.01 323.69-3.76 327.45-3.76ZM374.83 0L371.83 0 371.83-18.31Q371.83-19.21 371.49-20.01 371.14-20.8 370.56-21.39 369.97-21.97 369.18-22.31 368.39-22.66 367.48-22.66L367.48-22.66 365.99-22.66Q365.09-22.66 364.3-22.31 363.5-21.97 362.9-21.39 362.31-20.8 361.96-20.01 361.62-19.21 361.62-18.31L361.62-18.31 361.62 0 358.64 0 358.64-18.31Q358.64-19.21 358.3-20.01 357.96-20.8 357.36-21.39 356.76-21.97 355.97-22.31 355.18-22.66 354.27-22.66L354.27-22.66 352.78-22.66Q351.88-22.66 351.09-22.31 350.29-21.97 349.71-21.39 349.12-20.8 348.78-20.01 348.44-19.21 348.44-18.31L348.44-18.31 348.44 0 345.44 0 345.44-25 346.44-25 348.07-22.46Q349.1-23.85 350.65-24.67 352.2-25.49 354.03-25.49L354.03-25.49 354.27-25.49Q356.4-25.49 358.11-24.44 359.82-23.39 360.74-21.66L360.74-21.66Q361.21-22.51 361.89-23.22 362.57-23.93 363.4-24.43 364.23-24.93 365.21-25.21 366.19-25.49 367.24-25.49L367.24-25.49 367.48-25.49Q369-25.49 370.34-24.91 371.68-24.34 372.68-23.34 373.68-22.34 374.26-21 374.83-19.65 374.83-18.14L374.83-18.14 374.83 0ZM397.53-6.86L397.53-6.86Q397.53-5.35 396.96-4 396.39-2.66 395.38-1.66 394.38-0.66 393.04-0.09 391.7 0.49 390.18 0.49L390.18 0.49 388.18 0.49Q386.67 0.49 385.33-0.09 383.98-0.66 382.98-1.66 381.98-2.66 381.41-4 380.83-5.35 380.83-6.86L380.83-6.86 380.83-18.14Q380.83-19.65 381.41-21 381.98-22.34 382.98-23.34 383.98-24.34 385.33-24.91 386.67-25.49 388.18-25.49L388.18-25.49 390.18-25.49Q391.7-25.49 393.04-24.91 394.38-24.34 395.38-23.34 396.39-22.34 396.96-21 397.53-19.65 397.53-18.14L397.53-18.14 397.53-6.86ZM394.53-6.69L394.53-18.31Q394.53-19.21 394.19-20.01 393.85-20.8 393.26-21.39 392.67-21.97 391.88-22.31 391.09-22.66 390.18-22.66L390.18-22.66 388.18-22.66Q387.28-22.66 386.49-22.31 385.69-21.97 385.11-21.39 384.52-20.8 384.18-20.01 383.84-19.21 383.84-18.31L383.84-18.31 383.84-6.69Q383.84-5.79 384.18-4.99 384.52-4.2 385.11-3.61 385.69-3.03 386.49-2.69 387.28-2.34 388.18-2.34L388.18-2.34 390.18-2.34Q391.09-2.34 391.88-2.69 392.67-3.03 393.26-3.61 393.85-4.2 394.19-4.99 394.53-5.79 394.53-6.69L394.53-6.69ZM420.24 0L419.23 0 417.57-2.54Q416.55-1.15 415.01-0.33 413.47 0.49 411.64 0.49L411.64 0.49 410.89 0.49Q409.37 0.49 408.03-0.09 406.69-0.66 405.68-1.66 404.68-2.66 404.11-4 403.54-5.35 403.54-6.86L403.54-6.86 403.54-25 406.54-25 406.54-6.69Q406.54-5.79 406.88-4.99 407.22-4.2 407.81-3.61 408.39-3.03 409.19-2.69 409.98-2.34 410.89-2.34L410.89-2.34 412.89-2.34Q413.79-2.34 414.58-2.69 415.38-3.03 415.96-3.61 416.55-4.2 416.89-4.99 417.23-5.79 417.23-6.69L417.23-6.69 417.23-25 420.24-25 420.24 0ZM442.94 0L439.94 0 439.94-18.31Q439.94-19.21 439.59-20.01 439.25-20.8 438.67-21.39 438.08-21.97 437.29-22.31 436.49-22.66 435.59-22.66L435.59-22.66 433.59-22.66Q432.68-22.66 431.89-22.31 431.1-21.97 430.51-21.39 429.93-20.8 429.58-20.01 429.24-19.21 429.24-18.31L429.24-18.31 429.24 0 426.24 0 426.24-25 427.24-25 428.88-22.46Q429.9-23.85 431.45-24.67 433-25.49 434.83-25.49L434.83-25.49 435.59-25.49Q437.1-25.49 438.45-24.91 439.79-24.34 440.79-23.34 441.79-22.34 442.36-21 442.94-19.65 442.94-18.14L442.94-18.14 442.94 0ZM460.78 0L458.05 0Q456.68 0 455.47-0.51 454.26-1.03 453.37-1.93 452.48-2.83 451.96-4.03 451.43-5.22 451.43-6.59L451.43-6.59 451.43-22.14 446.94-22.14 446.94-25 451.43-25 451.43-31.01 454.43-31.49 454.43-25 460.78-25 460.78-22.14 454.43-22.14 454.43-6.45Q454.43-5.69 454.72-5.04 455-4.39 455.48-3.91 455.97-3.42 456.63-3.14 457.29-2.86 458.05-2.86L458.05-2.86 460.78-2.86 460.78 0Z" opacity="1" transform="matrix(1,0,0,1,0,0)" fill="#89939e" class="slogan-text-1" data-fill-palette-color="secondary" id="text-1"></path></svg></g></svg></g></svg></g></svg></g><g><svg viewBox="0 0 243.74191449161887 194.64365452912207" height="194.64365452912207" width="243.74191449161887"><g><svg xmlns="http://www.w3.org/2000/svg" xmlns:xlink="http://www.w3.org/1999/xlink" version="1.1" x="0" y="0" viewBox="28.829 32.536 42.21699999999999 33.712999999999994" enable-background="new 0 0 100 100" xml:space="preserve" height="194.64365452912207" width="243.74191449161887" class="icon-icon-0" data-fill-palette-color="accent" id="icon-0"><path d="M62.049 48.069l-1.82 3.681-9.511-19.214-7.124 14.393-2.601-5.255L28.829 66.249h42.217L62.049 48.069zM54.263 44.208l-1.149 0.893-2.417-1.878-2.417 1.878-1.119-0.87 3.557-7.186L54.263 44.208zM40.993 46.182l2.601 5.254 2.661-5.376 2.024 1.573 0.614-0.476c0.811-0.629 1.387-1.077 1.797-1.407l2.424 1.883 2.056-1.596 5.06 10.223 1.82-3.681 5.776 11.67H32.05L40.993 46.182z" fill="#000000" data-fill-palette-color="accent"></path></svg></g></svg></g></svg></g><defs></defs></svg><rect width="395.52" height="116.32734704683017" fill="none" stroke="none" visibility="hidden"></rect></g></svg></g></svg>
